PathFileType	4	(X/Y/Z)	/Users/itak/Documents/Research/Walk-IL/dataset/trc/00257_00009.trc
DataRate	CameraRate	NumFrames	NumMarkers	Units	OrigDataRate	OrigDataStartFrame	OrigNumFrames
100.000000	100.000000	4	53	mm	100.000000	333	533
Frame#	Time	RPSI			LPSI			L3			STRN			T10			C7			CLAV			RBAK			LBAK			LSHO			LUPA			LAEL			LAOL			LWTS			LWPS			LFRA			LIFD			LHPS			LHTS			RSHO			RUPA			RAEL			RAOL			RWPS			RFRA			RIFD			RHTS			RHPS			RBHD			LFHD			RFHD			LBHD			LHIP			RHIP			RASI			LASI			LKNE			LTHI			LANK			LTIP			LTOE			LMT1			LMT5			LHEE			RKNE			RTHI			RANK			RTIP			RTOE			RMT5			RHEE			RWTS			RMT1			
		X1	Y1	Z1	X2	Y2	Z2	X3	Y3	Z3	X4	Y4	Z4	X5	Y5	Z5	X6	Y6	Z6	X7	Y7	Z7	X8	Y8	Z8	X9	Y9	Z9	X10	Y10	Z10	X11	Y11	Z11	X12	Y12	Z12	X13	Y13	Z13	X14	Y14	Z14	X15	Y15	Z15	X16	Y16	Z16	X17	Y17	Z17	X18	Y18	Z18	X19	Y19	Z19	X20	Y20	Z20	X21	Y21	Z21	X22	Y22	Z22	X23	Y23	Z23	X24	Y24	Z24	X25	Y25	Z25	X26	Y26	Z26	X27	Y27	Z27	X28	Y28	Z28	X29	Y29	Z29	X30	Y30	Z30	X31	Y31	Z31	X32	Y32	Z32	X33	Y33	Z33	X34	Y34	Z34	X35	Y35	Z35	X36	Y36	Z36	X37	Y37	Z37	X38	Y38	Z38	X39	Y39	Z39	X40	Y40	Z40	X41	Y41	Z41	X42	Y42	Z42	X43	Y43	Z43	X44	Y44	Z44	X45	Y45	Z45	X46	Y46	Z46	X47	Y47	Z47	X48	Y48	Z48	X49	Y49	Z49	X50	Y50	Z50	X51	Y51	Z51	X52	Y52	Z52	X53	Y53	Z53	

334	3.33	-353.1478881835938	1016.825866699219	95.97010040283203	-455.0475769042969	1024.7802734375	32.26690292358398	-426.5543518066406	1107.02685546875	58.93808746337891	-287.8556213378906	1289.630126953125	-159.1642608642578	-424.4719848632812	1233.937744140625	55.62968826293945	-395.5619812011719	1493.380493164062	-4.625218391418457	-300.4154663085938	1407.302612304688	-137.9426116943359	-379.8612670898438	1354.112548828125	98.19144439697266	-499.513916015625	1454.923950195312	-48.6217041015625	-492.9674987792969	1452.592041015625	-152.3410797119141	-569.3163452148438	1335.395874023438	-180.6701812744141	-561.2542114257812	1132.461059570312	-240.3947448730469	-572.0850830078125	1095.538452148438	-161.0849761962891	-365.2934875488281	993.712158203125	-316.4765319824219	-422.3138732910156	958.8138427734375	-368.7164001464844	-513.437744140625	1050.201782226562	-291.73291015625	-268.4966430664062	842.623779296875	-387.8033752441406	-364.046875	898.5489501953125	-403.6089172363281	-308.3055114746094	933.8555297851562	-385.5476989746094	-225.3551635742188	1454.65185546875	45.86825180053711	-184.8907775878906	1391.91748046875	102.7508239746094	-167.6266632080078	1116.113525390625	164.2228088378906	-258.5321655273438	1109.324462890625	132.9277801513672	-84.58901214599609	891.7356567382812	105.3454513549805	-137.2340393066406	1048.00927734375	151.1161346435547	-104.2074584960938	723.7655029296875	3.665367126464844	-59.22809982299805	790.05908203125	-0.9543493986129761	-53.91135787963867	786.9408569335938	71.29331970214844	-313.8760070800781	1650.226806640625	-18.68049812316895	-307.1777648925781	1687.514892578125	-242.4803771972656	-217.7135009765625	1684.789428710938	-197.3756561279297	-411.617431640625	1658.425659179688	-119.1425399780273	-530.8133544921875	963.263427734375	-125.1044769287109	-211.1463775634766	984.1728515625	60.48904418945312	-198.76025390625	1027.174438476562	-40.71331405639648	-438.3926391601562	1004.503662109375	-188.6524810791016	-482.7335510253906	485.44970703125	-60.57202529907227	-504.43701171875	626.4788818359375	-98.88212585449219	-551.7781982421875	44.07777786254883	128.2439270019531	-525.5738525390625	274.3343505859375	30.79268455505371	-381.779296875	42.2976188659668	-13.07550716400146	-386.7476806640625	39.23047637939453	68.12431335449219	-491.52099609375	39.13855743408203	14.33219814300537	-548.4283447265625	58.05416107177734	208.0827789306641	-129.5685119628906	531.5474853515625	-123.3992004394531	-140.2164611816406	781.4888305664062	-29.55585289001465	-70.93763732910156	41.88969039916992	-219.7193603515625	-114.7851181030273	421.6646118164062	-171.6776885986328	-56.75148773193359	133.5469512939453	-407.530029296875	-18.20896339416504	78.04070281982422	-310.9695739746094	-142.4254455566406	22.46819305419922	-177.9883575439453	-100.3192825317383	909.2518310546875	24.42587852478027	-113.1407470703125	106.2875595092773	-375.0197448730469	
335	3.34	-346.177978515625	1015.6123046875	90.15967559814453	-448.5710754394531	1023.89892578125	27.02627182006836	-420.0738525390625	1105.606079101562	53.67521667480469	-283.1130981445312	1288.938842773438	-164.9694671630859	-418.0497436523438	1232.4345703125	50.58578109741211	-390.0686645507812	1492.140869140625	-9.059803009033203	-295.7397766113281	1406.502807617188	-143.2452697753906	-373.5142822265625	1352.607299804688	93.21321105957031	-494.1872863769531	1453.571044921875	-52.39585876464844	-488.5679321289062	1451.43896484375	-156.2396850585938	-565.0594482421875	1334.078735351562	-183.9420013427734	-557.3999633789062	1130.785278320312	-243.0783081054688	-567.5390014648438	1094.479736328125	-163.3659820556641	-363.5555725097656	989.1265258789062	-320.0309753417969	-421.5044250488281	954.4251708984375	-371.3197937011719	-510.791748046875	1047.523681640625	-294.2665710449219	-269.3865356445312	836.0585327148438	-390.8371887207031	-364.3560485839844	893.0691528320312	-406.1654663085938	-307.99755859375	927.8338623046875	-389.0122985839844	-219.5029449462891	1453.5419921875	40.1668701171875	-178.5583648681641	1390.636108398438	96.59145355224609	-161.1312866210938	1114.60888671875	157.0496673583984	-252.5242004394531	1107.87109375	126.8933486938477	-79.14962005615234	890.0047607421875	97.78044128417969	-131.0151519775391	1046.451293945312	143.7505493164062	-100.9404144287109	722.241943359375	-3.261923313140869	-55.12839889526367	787.9996948242188	-8.549701690673828	-49.20799255371094	784.98095703125	63.68061828613281	-308.8994750976562	1649.256225585938	-23.42827796936035	-303.17236328125	1686.846313476562	-247.2044067382812	-213.5348968505859	1684.132202148438	-202.4892578125	-407.0464172363281	1657.505737304688	-123.4479217529297	-525.684326171875	962.7576904296875	-129.7916564941406	-204.5619506835938	982.734619140625	53.32754898071289	-192.9328002929688	1025.986572265625	-47.91728591918945	-433.765869140625	1003.737243652344	-194.1519622802734	-480.1615600585938	485.269775390625	-63.80528259277344	-501.1784057617188	626.24853515625	-102.5680999755859	-551.382568359375	45.23274993896484	128.2247161865234	-524.2070922851562	275.029052734375	29.14608573913574	-381.8381958007812	42.24056625366211	-13.27229022979736	-386.8019409179688	39.44023513793945	67.87242126464844	-491.5137023925781	39.20228576660156	14.23955821990967	-547.974365234375	59.96469879150391	208.0052947998047	-126.2631607055664	529.8156127929688	-130.9467163085938	-135.6256713867188	779.5867919921875	-37.37159729003906	-70.27816009521484	39.72790908813477	-225.6365966796875	-112.2550506591797	419.5037841796875	-179.0799102783203	-58.0595588684082	129.7221374511719	-414.345458984375	-18.68449974060059	74.88192749023438	-317.724853515625	-141.1571197509766	22.02186584472656	-182.4365234375	-95.46890258789062	907.4147338867188	16.93440055847168	-114.1727142333984	102.8273162841797	-380.9981689453125	
336	3.35	-339.0870361328125	1014.463195800781	84.16443634033203	-442.028076171875	1023.03857421875	21.64338684082031	-413.4947204589844	1104.158935546875	48.3039665222168	-278.3191528320312	1288.299926757812	-170.8536376953125	-411.5259704589844	1230.91455078125	45.49648666381836	-384.4982299804688	1490.914306640625	-13.47802352905273	-291.0199584960938	1405.744140625	-148.5859680175781	-367.0704650878906	1351.089965820312	88.21294403076172	-488.8318786621094	1452.211059570312	-56.17117309570312	-484.1417236328125	1450.310668945312	-160.1217803955078	-560.7476196289062	1332.764038085938	-187.2061614990234	-553.505859375	1129.126953125	-245.7160491943359	-562.9002075195312	1093.453125	-165.6192474365234	-361.982421875	984.3016967773438	-323.5487060546875	-420.9505615234375	949.9856567382812	-373.8999328613281	-508.2141723632812	1044.843872070312	-296.7589111328125	-270.9347229003906	828.9743041992188	-393.8424682617188	-365.0914001464844	887.4164428710938	-408.6864318847656	-308.0271606445312	921.4127807617188	-392.394287109375	-213.5674743652344	1452.434936523438	34.42996978759766	-172.1350555419922	1389.344116210938	90.36743927001953	-154.5443420410156	1113.090454101562	149.7855682373047	-246.4305267333984	1106.386840820312	120.7445297241211	-73.65455627441406	888.24609375	90.15196990966797	-124.7239837646484	1044.87939453125	136.292724609375	-97.40259552001953	720.642578125	-10.23849296569824	-50.93902969360352	785.94775390625	-16.21026802062988	-44.44364929199219	783.0025634765625	56.00210571289062	-303.8793029785156	1648.328002929688	-28.16578674316406	-299.182373046875	1686.248046875	-251.9137420654297	-209.3573608398438	1683.550415039062	-207.6074829101562	-402.464111328125	1656.61474609375	-127.7150421142578	-520.4080200195312	962.2404174804688	-134.5914459228516	-197.9113464355469	981.3453369140625	46.05290985107422	-187.0092620849609	1024.823608398438	-55.24555206298828	-429.1353759765625	1002.90966796875	-199.7243804931641	-477.3840026855469	485.0686340332031	-67.27381896972656	-497.7444152832031	626.0040283203125	-106.4664001464844	-551.0364990234375	46.50855255126953	128.112060546875	-522.7039794921875	275.7508239746094	27.31595611572266	-381.9130859375	42.18599319458008	-13.4815845489502	-386.8661499023438	39.68950271606445	67.60578918457031	-491.5019836425781	39.2711067199707	14.11371421813965	-547.5838623046875	62.03453063964844	207.8221130371094	-122.931755065918	528.139892578125	-138.5823669433594	-130.9402008056641	777.8131103515625	-45.32267761230469	-69.96774291992188	37.50315093994141	-230.2716064453125	-109.8100051879883	417.2684631347656	-186.4015655517578	-59.67412567138672	124.6178359985352	-420.4082336425781	-19.56300735473633	71.00839233398438	-323.4044799804688	-140.2951965332031	21.92908477783203	-185.5787048339844	-90.56005859375	905.5557250976562	9.376792907714844	-115.5427703857422	98.37514495849609	-386.0764770507812	
337	3.36	-331.9091491699219	1013.433776855469	77.98170471191406	-435.4318542480469	1022.223022460938	16.12542724609375	-406.8278198242188	1102.705932617188	42.81454086303711	-273.4701538085938	1287.737915039062	-176.8081359863281	-404.9141235351562	1229.403198242188	40.35967636108398	-378.8569030761719	1489.72900390625	-17.88788795471191	-286.2589721679688	1405.05078125	-153.965087890625	-360.5398254394531	1349.584838867188	83.19341278076172	-483.4442749023438	1450.871704101562	-59.95449066162109	-479.6859130859375	1449.228759765625	-163.9965362548828	-556.3831176757812	1331.46630859375	-190.4588775634766	-549.5804443359375	1127.50341796875	-248.3021697998047	-558.18115234375	1092.471435546875	-167.8387756347656	-360.5697021484375	979.2857666015625	-326.9842529296875	-420.627197265625	945.561279296875	-376.4423217773438	-505.6996765136719	1042.198608398438	-299.2012634277344	-273.1354370117188	821.4588623046875	-396.7748718261719	-366.2320556640625	881.6763916015625	-411.1595458984375	-308.3860473632812	914.6665649414062	-395.64990234375	-207.5559997558594	1451.349731445312	28.66457557678223	-165.6316528320312	1388.060424804688	84.08737182617188	-147.8570404052734	1111.578247070312	142.4259338378906	-240.2412414550781	1104.896118164062	114.4876556396484	-68.10344696044922	886.4713745117188	82.46001434326172	-118.3532791137695	1043.315063476562	128.7344818115234	-93.61134338378906	718.9819946289062	-17.25563621520996	-46.66157150268555	783.9122924804688	-23.93326377868652	-39.61109161376953	781.0213012695312	48.25992584228516	-298.8121337890625	1647.470581054688	-32.89910125732422	-295.2090454101562	1685.7412109375	-256.6143493652344	-205.1801300048828	1683.0703125	-212.7384185791016	-397.8749389648438	1655.778076171875	-131.9517211914062	-514.986083984375	961.704833984375	-139.5059509277344	-191.2234497070312	980.06005859375	38.69135284423828	-181.0204467773438	1023.707763671875	-62.67033386230469	-424.4579772949219	1002.0673828125	-205.3919219970703	-474.3587646484375	484.8363952636719	-71.00323486328125	-494.1065673828125	625.7326049804688	-110.6004333496094	-550.726806640625	47.92208099365234	127.9058990478516	-521.0299682617188	276.4985961914062	25.2867546081543	-381.9902038574219	42.13318634033203	-13.69685649871826	-386.9128112792969	39.97521591186523	67.33164978027344	-491.46875	39.34923553466797	13.95767211914062	-547.2406616210938	64.29034423828125	207.5305633544922	-119.5537872314453	526.593505859375	-146.2893676757812	-126.1255340576172	776.234375	-53.39499282836914	-69.80632019042969	35.37548828125	-233.8493194580078	-107.3911895751953	415.0805969238281	-193.677490234375	-61.4454460144043	118.3491439819336	-425.9462890625	-20.66274642944336	66.56067657470703	-328.2550048828125	-139.6851043701172	22.15872001647949	-187.7510223388672	-85.59490203857422	903.6876831054688	1.761322617530823	-117.0934066772461	93.080322265625	-390.4806213378906	
